<?xml version="1.0" standalone="no"?>
<!DOCTYPE svg PUBLIC "-//W3C//DTD SVG 20010904//EN"
 "http://www.w3.org/TR/2001/REC-SVG-20010904/DTD/svg10.dtd">
<svg version="1.0" xmlns="http://www.w3.org/2000/svg"
 width="300.000000pt" height="300.000000pt" viewBox="0 0 300.000000 300.000000"
 preserveAspectRatio="xMidYMid meet">
<metadata>
Created by potrace 1.14, written by Peter Selinger 2001-2017
</metadata>
<g transform="translate(0.000000,300.000000) scale(0.100000,-0.100000)"
fill="#000000" stroke="none">
<path d="M1869 2927 c-84 -71 -75 -235 15 -268 27 -10 36 -19 36 -36 0 -19 -5
-23 -32 -23 -25 0 -29 -3 -18 -10 13 -9 13 -10 0 -10 -47 0 -149 -97 -154
-147 -2 -15 -4 -30 -5 -33 0 -3 -229 -5 -509 -5 l-507 0 -45 -24 c-78 -41
-141 -107 -185 -191 -24 -46 -45 -167 -45 -262 0 -42 -4 -79 -8 -82 -4 -2 -48
-6 -97 -7 -72 -2 -96 -7 -118 -23 -47 -34 -55 -64 -59 -212 l-3 -136 37 -34
c35 -31 43 -34 105 -35 38 -1 84 -2 103 -3 l35 -2 5 -119 c11 -226 68 -334
222 -419 26 -14 53 -26 61 -26 8 0 20 -6 26 -14 15 -18 -71 -91 -99 -83 -11 3
-62 2 -113 -3 -68 -6 -106 -15 -143 -34 -29 -14 -55 -26 -59 -26 -25 0 -185
-153 -185 -177 0 -25 -1 -28 -16 -51 -29 -44 -55 -137 -64 -222 -6 -70 -5 -89
8 -110 9 -14 21 -28 26 -32 15 -10 255 -13 1149 -13 767 1 850 2 858 17 15 27
76 32 115 9 33 -20 52 -21 357 -23 345 -2 359 0 377 48 15 39 12 148 -6 220
-24 93 -96 208 -169 267 -112 90 -217 127 -363 127 -73 0 -75 1 -113 39 -45
45 -49 61 -15 61 29 0 125 56 177 102 46 42 94 128 108 196 6 29 11 100 11
157 0 120 -10 111 125 114 89 2 90 2 121 36 35 39 44 84 44 213 0 86 -18 132
-62 164 -26 18 -45 21 -132 22 l-101 1 -1 135 c-1 123 -3 140 -28 199 -47 111
-150 197 -274 230 -31 9 -46 20 -58 44 -31 61 -74 104 -129 133 -70 36 -81 65
-39 99 16 13 33 21 39 17 5 -3 7 -2 3 2 -4 5 2 25 13 44 35 67 16 152 -46 204
-32 27 -142 24 -176 -5z"/>
<path d="M2103 2713 c-7 -3 -13 -14 -13 -26 0 -20 1 -20 16 -5 18 18 16 37 -3
31z"/>
<path d="M2035 2639 c-10 -15 3 -25 16 -12 7 7 7 13 1 17 -6 3 -14 1 -17 -5z"/>
<path d="M2100 2630 c0 -5 5 -10 11 -10 5 0 7 5 4 10 -3 6 -8 10 -11 10 -2 0
-4 -4 -4 -10z"/>
<path d="M2120 2571 c0 -5 5 -13 10 -16 6 -3 10 -2 10 4 0 5 -4 13 -10 16 -5
3 -10 2 -10 -4z"/>
<path d="M1667 2493 c-10 -9 -9 -23 2 -23 5 0 11 7 15 15 5 15 -5 20 -17 8z"/>
<path d="M2230 2425 c0 -8 7 -15 15 -15 8 0 15 4 15 9 0 5 -7 11 -15 15 -9 3
-15 0 -15 -9z"/>
<path d="M466 2337 c3 -10 9 -15 12 -12 3 3 0 11 -7 18 -10 9 -11 8 -5 -6z"/>
<path d="M258 1853 c7 -3 16 -2 19 1 4 3 -2 6 -13 5 -11 0 -14 -3 -6 -6z"/>
<path d="M2826 582 c-3 -4 4 -9 15 -9 23 -2 25 3 4 10 -8 4 -16 3 -19 -1z"/>
<path d="M19 292 c-2 -9 -2 -48 1 -87 l5 -70 8 49 c4 27 7 64 7 82 0 36 -15
55 -21 26z"/>
<path d="M238 33 c12 -2 32 -2 45 0 12 2 2 4 -23 4 -25 0 -35 -2 -22 -4z"/>
<path d="M663 13 c15 -2 37 -2 50 0 12 2 0 4 -28 4 -27 0 -38 -2 -22 -4z"/>
<path d="M828 13 c6 -2 18 -2 25 0 6 3 1 5 -13 5 -14 0 -19 -2 -12 -5z"/>
</g>
</svg>
